<svg xmlns="http://www.w3.org/2000/svg" xmlns:xlink="http://www.w3.org/1999/xlink" width="199" zoomAndPan="magnify" viewBox="0 0 149.25 34.499999" height="46" preserveAspectRatio="xMidYMid meet" version="1.2"><defs/><g id="5042b70eaf"><g style="fill:#000000;fill-opacity:1;"><g transform="translate(3.882601, 26.895567)"><path style="stroke:none" d="M 3.46875 -2.078125 C 3.46875 -1.171875 3.375 -0.390625 3.1875 0.265625 C 3.007812 0.929688 2.753906 1.519531 2.421875 2.03125 C 2.085938 2.539062 1.695312 2.992188 1.25 3.390625 C 0.800781 3.796875 0.304688 4.191406 -0.234375 4.578125 L -0.40625 4.328125 C 0.0507812 3.910156 0.414062 3.472656 0.6875 3.015625 C 0.957031 2.554688 1.160156 2.066406 1.296875 1.546875 C 1.441406 1.035156 1.535156 0.484375 1.578125 -0.109375 C 1.617188 -0.710938 1.640625 -1.367188 1.640625 -2.078125 L 1.640625 -10.4375 C 1.640625 -11.007812 1.632812 -11.503906 1.625 -11.921875 C 1.613281 -12.347656 1.59375 -12.71875 1.5625 -13.03125 C 1.53125 -13.34375 1.492188 -13.597656 1.453125 -13.796875 C 1.421875 -14.003906 1.390625 -14.179688 1.359375 -14.328125 L 1.359375 -14.359375 L 3.75 -14.359375 L 3.75 -14.328125 C 3.71875 -14.179688 3.679688 -14.003906 3.640625 -13.796875 C 3.609375 -13.597656 3.578125 -13.34375 3.546875 -13.03125 C 3.515625 -12.71875 3.492188 -12.347656 3.484375 -11.921875 C 3.472656 -11.503906 3.46875 -11.007812 3.46875 -10.4375 Z M 3.46875 -2.078125 "/></g></g><g style="fill:#000000;fill-opacity:1;"><g transform="translate(8.989509, 26.895567)"><path style="stroke:none" d="M 0.734375 -2.953125 C 0.734375 -3.484375 0.84375 -3.941406 1.0625 -4.328125 C 1.28125 -4.710938 1.566406 -5.039062 1.921875 -5.3125 C 2.285156 -5.59375 2.695312 -5.816406 3.15625 -5.984375 C 3.625 -6.148438 4.101562 -6.28125 4.59375 -6.375 C 5.09375 -6.476562 5.582031 -6.546875 6.0625 -6.578125 C 6.539062 -6.617188 6.984375 -6.644531 7.390625 -6.65625 L 7.390625 -7.15625 C 7.390625 -7.601562 7.332031 -7.984375 7.21875 -8.296875 C 7.101562 -8.617188 6.941406 -8.882812 6.734375 -9.09375 C 6.523438 -9.3125 6.273438 -9.472656 5.984375 -9.578125 C 5.691406 -9.679688 5.375 -9.734375 5.03125 -9.734375 C 4.789062 -9.734375 4.550781 -9.710938 4.3125 -9.671875 C 4.082031 -9.628906 3.84375 -9.5625 3.59375 -9.46875 C 3.34375 -9.375 3.078125 -9.242188 2.796875 -9.078125 C 2.523438 -8.921875 2.226562 -8.71875 1.90625 -8.46875 L 1.796875 -8.53125 L 2.484375 -9.953125 C 2.703125 -10.046875 2.914062 -10.125 3.125 -10.1875 C 3.34375 -10.25 3.5625 -10.300781 3.78125 -10.34375 C 4 -10.382812 4.222656 -10.410156 4.453125 -10.421875 C 4.691406 -10.441406 4.9375 -10.453125 5.1875 -10.453125 C 5.882812 -10.453125 6.484375 -10.367188 6.984375 -10.203125 C 7.484375 -10.035156 7.890625 -9.800781 8.203125 -9.5 C 8.523438 -9.207031 8.757812 -8.859375 8.90625 -8.453125 C 9.050781 -8.054688 9.125 -7.632812 9.125 -7.1875 L 9.125 -3.921875 C 9.125 -3.347656 9.128906 -2.847656 9.140625 -2.421875 C 9.160156 -2.003906 9.179688 -1.640625 9.203125 -1.328125 C 9.234375 -1.023438 9.265625 -0.769531 9.296875 -0.5625 C 9.335938 -0.351562 9.378906 -0.179688 9.421875 -0.046875 L 9.421875 0 L 7.203125 0 L 7.203125 -0.046875 C 7.234375 -0.148438 7.253906 -0.265625 7.265625 -0.390625 C 7.285156 -0.523438 7.304688 -0.6875 7.328125 -0.875 C 7.179688 -0.757812 7.015625 -0.640625 6.828125 -0.515625 C 6.640625 -0.390625 6.421875 -0.273438 6.171875 -0.171875 C 5.929688 -0.0664062 5.660156 0.015625 5.359375 0.078125 C 5.066406 0.148438 4.742188 0.1875 4.390625 0.1875 C 3.222656 0.1875 2.320312 -0.0820312 1.6875 -0.625 C 1.050781 -1.175781 0.734375 -1.953125 0.734375 -2.953125 Z M 7.390625 -5.875 C 6.773438 -5.863281 6.1875 -5.828125 5.625 -5.765625 C 5.0625 -5.703125 4.566406 -5.566406 4.140625 -5.359375 C 3.710938 -5.160156 3.367188 -4.875 3.109375 -4.5 C 2.847656 -4.132812 2.71875 -3.644531 2.71875 -3.03125 C 2.71875 -2.25 2.914062 -1.648438 3.3125 -1.234375 C 3.707031 -0.816406 4.253906 -0.609375 4.953125 -0.609375 C 5.265625 -0.609375 5.550781 -0.648438 5.8125 -0.734375 C 6.082031 -0.828125 6.316406 -0.941406 6.515625 -1.078125 C 6.722656 -1.222656 6.894531 -1.375 7.03125 -1.53125 C 7.175781 -1.695312 7.285156 -1.859375 7.359375 -2.015625 C 7.378906 -2.265625 7.390625 -2.546875 7.390625 -2.859375 C 7.390625 -3.171875 7.390625 -3.523438 7.390625 -3.921875 Z M 7.390625 -5.875 "/></g></g><g style="fill:#000000;fill-opacity:1;"><g transform="translate(19.593857, 26.895567)"><path style="stroke:none" d="M 5.171875 -0.59375 C 5.367188 -0.59375 5.566406 -0.628906 5.765625 -0.703125 C 5.960938 -0.773438 6.148438 -0.875 6.328125 -1 C 6.515625 -1.125 6.691406 -1.269531 6.859375 -1.4375 C 7.035156 -1.601562 7.195312 -1.773438 7.34375 -1.953125 L 7.4375 -1.90625 L 6.796875 -0.296875 C 6.710938 -0.253906 6.613281 -0.203125 6.5 -0.140625 C 6.382812 -0.0859375 6.242188 -0.0351562 6.078125 0.015625 C 5.910156 0.0664062 5.71875 0.109375 5.5 0.140625 C 5.28125 0.179688 5.019531 0.203125 4.71875 0.203125 C 3.820312 0.203125 3.125 -0.0351562 2.625 -0.515625 C 2.132812 -1.003906 1.890625 -1.765625 1.890625 -2.796875 L 1.890625 -9.46875 L 0.203125 -9.421875 L 0.203125 -10.296875 C 0.410156 -10.285156 0.65625 -10.273438 0.9375 -10.265625 C 1.226562 -10.265625 1.546875 -10.265625 1.890625 -10.265625 C 1.878906 -10.734375 1.863281 -11.148438 1.84375 -11.515625 C 1.832031 -11.878906 1.8125 -12.195312 1.78125 -12.46875 C 1.757812 -12.738281 1.734375 -12.96875 1.703125 -13.15625 C 1.671875 -13.34375 1.640625 -13.5 1.609375 -13.625 L 1.609375 -13.65625 L 3.921875 -13.65625 L 3.921875 -13.625 C 3.878906 -13.5 3.835938 -13.34375 3.796875 -13.15625 C 3.765625 -12.96875 3.738281 -12.738281 3.71875 -12.46875 C 3.695312 -12.207031 3.675781 -11.894531 3.65625 -11.53125 C 3.644531 -11.164062 3.632812 -10.742188 3.625 -10.265625 C 4.039062 -10.265625 4.453125 -10.269531 4.859375 -10.28125 C 5.265625 -10.289062 5.632812 -10.300781 5.96875 -10.3125 C 6.300781 -10.332031 6.582031 -10.347656 6.8125 -10.359375 C 7.039062 -10.378906 7.191406 -10.398438 7.265625 -10.421875 L 7.078125 -9.390625 C 6.742188 -9.398438 6.390625 -9.410156 6.015625 -9.421875 C 5.691406 -9.441406 5.320312 -9.453125 4.90625 -9.453125 C 4.488281 -9.460938 4.0625 -9.46875 3.625 -9.46875 L 3.625 -2.578125 C 3.625 -2.171875 3.664062 -1.835938 3.75 -1.578125 C 3.84375 -1.316406 3.960938 -1.113281 4.109375 -0.96875 C 4.253906 -0.820312 4.414062 -0.722656 4.59375 -0.671875 C 4.78125 -0.617188 4.972656 -0.59375 5.171875 -0.59375 Z M 5.171875 -0.59375 "/></g></g><g style="fill:#000000;fill-opacity:1;"><g transform="translate(27.464504, 26.895567)"><path style="stroke:none" d="M 8.4375 -6.75 C 8.4375 -7.632812 8.257812 -8.28125 7.90625 -8.6875 C 7.550781 -9.101562 7.078125 -9.3125 6.484375 -9.3125 C 6.265625 -9.3125 6.019531 -9.265625 5.75 -9.171875 C 5.476562 -9.085938 5.195312 -8.96875 4.90625 -8.8125 C 4.625 -8.65625 4.34375 -8.472656 4.0625 -8.265625 C 3.78125 -8.066406 3.519531 -7.859375 3.28125 -7.640625 L 3.28125 -3.921875 C 3.28125 -3.347656 3.285156 -2.847656 3.296875 -2.421875 C 3.316406 -2.003906 3.335938 -1.640625 3.359375 -1.328125 C 3.390625 -1.023438 3.421875 -0.769531 3.453125 -0.5625 C 3.484375 -0.351562 3.519531 -0.179688 3.5625 -0.046875 L 3.5625 0 L 1.25 0 L 1.25 -0.046875 C 1.289062 -0.179688 1.328125 -0.351562 1.359375 -0.5625 C 1.398438 -0.769531 1.429688 -1.023438 1.453125 -1.328125 C 1.484375 -1.640625 1.503906 -2.003906 1.515625 -2.421875 C 1.535156 -2.847656 1.546875 -3.347656 1.546875 -3.921875 L 1.546875 -11.0625 C 1.546875 -11.625 1.535156 -12.117188 1.515625 -12.546875 C 1.503906 -12.972656 1.484375 -13.335938 1.453125 -13.640625 C 1.429688 -13.953125 1.398438 -14.207031 1.359375 -14.40625 C 1.328125 -14.613281 1.289062 -14.789062 1.25 -14.9375 L 1.25 -14.96875 L 3.5625 -14.96875 L 3.5625 -14.9375 C 3.519531 -14.789062 3.484375 -14.613281 3.453125 -14.40625 C 3.421875 -14.207031 3.390625 -13.953125 3.359375 -13.640625 C 3.335938 -13.335938 3.316406 -12.972656 3.296875 -12.546875 C 3.285156 -12.117188 3.28125 -11.625 3.28125 -11.0625 L 3.28125 -8.5 C 3.550781 -8.738281 3.847656 -8.972656 4.171875 -9.203125 C 4.492188 -9.441406 4.828125 -9.65625 5.171875 -9.84375 C 5.523438 -10.03125 5.878906 -10.175781 6.234375 -10.28125 C 6.597656 -10.394531 6.953125 -10.453125 7.296875 -10.453125 C 7.816406 -10.453125 8.257812 -10.363281 8.625 -10.1875 C 8.988281 -10.007812 9.285156 -9.769531 9.515625 -9.46875 C 9.742188 -9.175781 9.910156 -8.84375 10.015625 -8.46875 C 10.117188 -8.09375 10.171875 -7.710938 10.171875 -7.328125 L 10.171875 -3.921875 C 10.171875 -3.347656 10.175781 -2.847656 10.1875 -2.421875 C 10.207031 -2.003906 10.226562 -1.640625 10.25 -1.328125 C 10.28125 -1.023438 10.3125 -0.769531 10.34375 -0.5625 C 10.375 -0.351562 10.410156 -0.179688 10.453125 -0.046875 L 10.453125 0 L 8.140625 0 L 8.140625 -0.046875 C 8.179688 -0.179688 8.21875 -0.351562 8.25 -0.5625 C 8.289062 -0.769531 8.320312 -1.023438 8.34375 -1.328125 C 8.375 -1.640625 8.394531 -2.003906 8.40625 -2.421875 C 8.425781 -2.847656 8.4375 -3.347656 8.4375 -3.921875 Z M 8.4375 -6.75 "/></g></g><g style="fill:#000000;fill-opacity:1;"><g transform="translate(39.11026, 26.895567)"><path style="stroke:none" d="M 0.734375 -2.953125 C 0.734375 -3.484375 0.84375 -3.941406 1.0625 -4.328125 C 1.28125 -4.710938 1.566406 -5.039062 1.921875 -5.3125 C 2.285156 -5.59375 2.695312 -5.816406 3.15625 -5.984375 C 3.625 -6.148438 4.101562 -6.28125 4.59375 -6.375 C 5.09375 -6.476562 5.582031 -6.546875 6.0625 -6.578125 C 6.539062 -6.617188 6.984375 -6.644531 7.390625 -6.65625 L 7.390625 -7.15625 C 7.390625 -7.601562 7.332031 -7.984375 7.21875 -8.296875 C 7.101562 -8.617188 6.941406 -8.882812 6.734375 -9.09375 C 6.523438 -9.3125 6.273438 -9.472656 5.984375 -9.578125 C 5.691406 -9.679688 5.375 -9.734375 5.03125 -9.734375 C 4.789062 -9.734375 4.550781 -9.710938 4.3125 -9.671875 C 4.082031 -9.628906 3.84375 -9.5625 3.59375 -9.46875 C 3.34375 -9.375 3.078125 -9.242188 2.796875 -9.078125 C 2.523438 -8.921875 2.226562 -8.71875 1.90625 -8.46875 L 1.796875 -8.53125 L 2.484375 -9.953125 C 2.703125 -10.046875 2.914062 -10.125 3.125 -10.1875 C 3.34375 -10.25 3.5625 -10.300781 3.78125 -10.34375 C 4 -10.382812 4.222656 -10.410156 4.453125 -10.421875 C 4.691406 -10.441406 4.9375 -10.453125 5.1875 -10.453125 C 5.882812 -10.453125 6.484375 -10.367188 6.984375 -10.203125 C 7.484375 -10.035156 7.890625 -9.800781 8.203125 -9.5 C 8.523438 -9.207031 8.757812 -8.859375 8.90625 -8.453125 C 9.050781 -8.054688 9.125 -7.632812 9.125 -7.1875 L 9.125 -3.921875 C 9.125 -3.347656 9.128906 -2.847656 9.140625 -2.421875 C 9.160156 -2.003906 9.179688 -1.640625 9.203125 -1.328125 C 9.234375 -1.023438 9.265625 -0.769531 9.296875 -0.5625 C 9.335938 -0.351562 9.378906 -0.179688 9.421875 -0.046875 L 9.421875 0 L 7.203125 0 L 7.203125 -0.046875 C 7.234375 -0.148438 7.253906 -0.265625 7.265625 -0.390625 C 7.285156 -0.523438 7.304688 -0.6875 7.328125 -0.875 C 7.179688 -0.757812 7.015625 -0.640625 6.828125 -0.515625 C 6.640625 -0.390625 6.421875 -0.273438 6.171875 -0.171875 C 5.929688 -0.0664062 5.660156 0.015625 5.359375 0.078125 C 5.066406 0.148438 4.742188 0.1875 4.390625 0.1875 C 3.222656 0.1875 2.320312 -0.0820312 1.6875 -0.625 C 1.050781 -1.175781 0.734375 -1.953125 0.734375 -2.953125 Z M 7.390625 -5.875 C 6.773438 -5.863281 6.1875 -5.828125 5.625 -5.765625 C 5.0625 -5.703125 4.566406 -5.566406 4.140625 -5.359375 C 3.710938 -5.160156 3.367188 -4.875 3.109375 -4.5 C 2.847656 -4.132812 2.71875 -3.644531 2.71875 -3.03125 C 2.71875 -2.25 2.914062 -1.648438 3.3125 -1.234375 C 3.707031 -0.816406 4.253906 -0.609375 4.953125 -0.609375 C 5.265625 -0.609375 5.550781 -0.648438 5.8125 -0.734375 C 6.082031 -0.828125 6.316406 -0.941406 6.515625 -1.078125 C 6.722656 -1.222656 6.894531 -1.375 7.03125 -1.53125 C 7.175781 -1.695312 7.285156 -1.859375 7.359375 -2.015625 C 7.378906 -2.265625 7.390625 -2.546875 7.390625 -2.859375 C 7.390625 -3.171875 7.390625 -3.523438 7.390625 -3.921875 Z M 7.390625 -5.875 "/></g></g><g style="fill:#000000;fill-opacity:1;"><g transform="translate(49.714607, 26.895567)"><path style="stroke:none" d="M 8.4375 -6.75 C 8.4375 -7.632812 8.257812 -8.28125 7.90625 -8.6875 C 7.550781 -9.101562 7.078125 -9.3125 6.484375 -9.3125 C 6.265625 -9.3125 6.019531 -9.265625 5.75 -9.171875 C 5.488281 -9.085938 5.21875 -8.96875 4.9375 -8.8125 C 4.65625 -8.664062 4.375 -8.492188 4.09375 -8.296875 C 3.8125 -8.097656 3.550781 -7.882812 3.3125 -7.65625 L 3.28125 -6.34375 L 3.28125 -3.921875 C 3.28125 -3.347656 3.285156 -2.847656 3.296875 -2.421875 C 3.316406 -2.003906 3.335938 -1.640625 3.359375 -1.328125 C 3.390625 -1.023438 3.421875 -0.769531 3.453125 -0.5625 C 3.484375 -0.351562 3.519531 -0.179688 3.5625 -0.046875 L 3.5625 0 L 1.25 0 L 1.25 -0.046875 C 1.289062 -0.179688 1.328125 -0.351562 1.359375 -0.5625 C 1.398438 -0.769531 1.429688 -1.023438 1.453125 -1.328125 C 1.484375 -1.640625 1.503906 -2.003906 1.515625 -2.421875 C 1.535156 -2.847656 1.546875 -3.347656 1.546875 -3.921875 L 1.546875 -6.34375 C 1.546875 -6.90625 1.535156 -7.398438 1.515625 -7.828125 C 1.503906 -8.253906 1.484375 -8.617188 1.453125 -8.921875 C 1.429688 -9.234375 1.398438 -9.488281 1.359375 -9.6875 C 1.328125 -9.894531 1.289062 -10.070312 1.25 -10.21875 L 1.25 -10.265625 L 3.5625 -10.265625 L 3.5625 -10.21875 C 3.507812 -10.050781 3.46875 -9.835938 3.4375 -9.578125 C 3.40625 -9.328125 3.375 -8.992188 3.34375 -8.578125 C 3.613281 -8.804688 3.90625 -9.03125 4.21875 -9.25 C 4.539062 -9.476562 4.875 -9.679688 5.21875 -9.859375 C 5.5625 -10.035156 5.910156 -10.175781 6.265625 -10.28125 C 6.617188 -10.394531 6.960938 -10.453125 7.296875 -10.453125 C 7.816406 -10.453125 8.257812 -10.363281 8.625 -10.1875 C 8.988281 -10.007812 9.285156 -9.769531 9.515625 -9.46875 C 9.742188 -9.175781 9.910156 -8.84375 10.015625 -8.46875 C 10.117188 -8.09375 10.171875 -7.710938 10.171875 -7.328125 L 10.171875 -3.921875 C 10.171875 -3.347656 10.175781 -2.847656 10.1875 -2.421875 C 10.207031 -2.003906 10.226562 -1.640625 10.25 -1.328125 C 10.28125 -1.023438 10.3125 -0.769531 10.34375 -0.5625 C 10.375 -0.351562 10.410156 -0.179688 10.453125 -0.046875 L 10.453125 0 L 8.140625 0 L 8.140625 -0.046875 C 8.179688 -0.179688 8.21875 -0.351562 8.25 -0.5625 C 8.289062 -0.769531 8.320312 -1.023438 8.34375 -1.328125 C 8.375 -1.640625 8.394531 -2.003906 8.40625 -2.421875 C 8.425781 -2.847656 8.4375 -3.347656 8.4375 -3.921875 Z M 8.4375 -6.75 "/></g></g><g style="fill:#000000;fill-opacity:1;"><g transform="translate(61.360363, 26.895567)"><path style="stroke:none" d="M 1.609375 -6.34375 C 1.609375 -6.90625 1.597656 -7.398438 1.578125 -7.828125 C 1.554688 -8.253906 1.535156 -8.617188 1.515625 -8.921875 C 1.492188 -9.234375 1.460938 -9.488281 1.421875 -9.6875 C 1.390625 -9.894531 1.351562 -10.070312 1.3125 -10.21875 L 1.3125 -10.265625 L 3.625 -10.265625 L 3.625 -10.21875 C 3.582031 -10.070312 3.546875 -9.894531 3.515625 -9.6875 C 3.484375 -9.488281 3.453125 -9.234375 3.421875 -8.921875 C 3.398438 -8.617188 3.378906 -8.253906 3.359375 -7.828125 C 3.347656 -7.398438 3.34375 -6.90625 3.34375 -6.34375 L 3.34375 -3.921875 C 3.34375 -3.347656 3.347656 -2.847656 3.359375 -2.421875 C 3.378906 -2.003906 3.398438 -1.640625 3.421875 -1.328125 C 3.453125 -1.023438 3.484375 -0.769531 3.515625 -0.5625 C 3.546875 -0.351562 3.582031 -0.179688 3.625 -0.046875 L 3.625 0 L 1.3125 0 L 1.3125 -0.046875 C 1.351562 -0.179688 1.390625 -0.351562 1.421875 -0.5625 C 1.460938 -0.769531 1.492188 -1.023438 1.515625 -1.328125 C 1.535156 -1.640625 1.554688 -2.003906 1.578125 -2.421875 C 1.597656 -2.847656 1.609375 -3.347656 1.609375 -3.921875 Z M 1.390625 -13.296875 C 1.390625 -13.441406 1.414062 -13.578125 1.46875 -13.703125 C 1.53125 -13.835938 1.609375 -13.953125 1.703125 -14.046875 C 1.796875 -14.140625 1.90625 -14.210938 2.03125 -14.265625 C 2.164062 -14.328125 2.3125 -14.359375 2.46875 -14.359375 C 2.613281 -14.359375 2.75 -14.328125 2.875 -14.265625 C 3.007812 -14.210938 3.125 -14.140625 3.21875 -14.046875 C 3.320312 -13.953125 3.398438 -13.835938 3.453125 -13.703125 C 3.515625 -13.578125 3.546875 -13.441406 3.546875 -13.296875 C 3.546875 -12.984375 3.441406 -12.722656 3.234375 -12.515625 C 3.023438 -12.316406 2.769531 -12.21875 2.46875 -12.21875 C 2.3125 -12.21875 2.164062 -12.242188 2.03125 -12.296875 C 1.90625 -12.347656 1.796875 -12.421875 1.703125 -12.515625 C 1.609375 -12.617188 1.53125 -12.734375 1.46875 -12.859375 C 1.414062 -12.992188 1.390625 -13.140625 1.390625 -13.296875 Z M 1.390625 -13.296875 "/></g></g><g style="fill:#000000;fill-opacity:1;"><g transform="translate(66.307055, 26.895567)"><path style="stroke:none" d="M 6.03125 0.1875 C 5.289062 0.1875 4.59375 0.0703125 3.9375 -0.15625 C 3.289062 -0.394531 2.726562 -0.738281 2.25 -1.1875 C 1.769531 -1.644531 1.390625 -2.203125 1.109375 -2.859375 C 0.835938 -3.523438 0.703125 -4.289062 0.703125 -5.15625 C 0.703125 -5.90625 0.828125 -6.601562 1.078125 -7.25 C 1.335938 -7.894531 1.691406 -8.453125 2.140625 -8.921875 C 2.585938 -9.398438 3.109375 -9.769531 3.703125 -10.03125 C 4.296875 -10.300781 4.941406 -10.4375 5.640625 -10.4375 C 6.328125 -10.4375 6.960938 -10.316406 7.546875 -10.078125 C 8.140625 -9.847656 8.648438 -9.503906 9.078125 -9.046875 C 9.515625 -8.597656 9.859375 -8.039062 10.109375 -7.375 C 10.359375 -6.707031 10.492188 -5.953125 10.515625 -5.109375 C 9.753906 -5.117188 8.992188 -5.128906 8.234375 -5.140625 C 7.484375 -5.148438 6.703125 -5.15625 5.890625 -5.15625 C 5.304688 -5.15625 4.738281 -5.148438 4.1875 -5.140625 C 3.632812 -5.128906 3.140625 -5.117188 2.703125 -5.109375 C 2.742188 -4.410156 2.851562 -3.78125 3.03125 -3.21875 C 3.207031 -2.664062 3.453125 -2.1875 3.765625 -1.78125 C 4.078125 -1.382812 4.453125 -1.078125 4.890625 -0.859375 C 5.335938 -0.648438 5.84375 -0.546875 6.40625 -0.546875 C 6.789062 -0.546875 7.15625 -0.59375 7.5 -0.6875 C 7.84375 -0.78125 8.15625 -0.90625 8.4375 -1.0625 C 8.71875 -1.21875 8.96875 -1.40625 9.1875 -1.625 C 9.40625 -1.84375 9.59375 -2.078125 9.75 -2.328125 L 9.859375 -2.28125 L 9.125 -0.484375 C 8.757812 -0.296875 8.328125 -0.132812 7.828125 0 C 7.328125 0.125 6.726562 0.1875 6.03125 0.1875 Z M 4.703125 -5.9375 C 5.367188 -5.9375 6.035156 -5.9375 6.703125 -5.9375 C 7.378906 -5.9375 7.988281 -5.945312 8.53125 -5.96875 C 8.46875 -6.550781 8.351562 -7.070312 8.1875 -7.53125 C 8.019531 -7.988281 7.804688 -8.378906 7.546875 -8.703125 C 7.285156 -9.023438 6.976562 -9.269531 6.625 -9.4375 C 6.269531 -9.613281 5.878906 -9.703125 5.453125 -9.703125 C 5.066406 -9.703125 4.710938 -9.617188 4.390625 -9.453125 C 4.066406 -9.285156 3.785156 -9.039062 3.546875 -8.71875 C 3.304688 -8.394531 3.113281 -8 2.96875 -7.53125 C 2.820312 -7.070312 2.734375 -6.546875 2.703125 -5.953125 C 3.003906 -5.941406 3.320312 -5.9375 3.65625 -5.9375 C 3.988281 -5.9375 4.335938 -5.9375 4.703125 -5.9375 Z M 4.703125 -5.9375 "/></g></g><g style="fill:#000000;fill-opacity:1;"><g transform="translate(77.42209, 26.895567)"><path style="stroke:none" d="M 1.609375 -11.0625 C 1.609375 -11.625 1.597656 -12.117188 1.578125 -12.546875 C 1.554688 -12.972656 1.535156 -13.335938 1.515625 -13.640625 C 1.492188 -13.953125 1.460938 -14.207031 1.421875 -14.40625 C 1.390625 -14.613281 1.351562 -14.789062 1.3125 -14.9375 L 1.3125 -14.96875 L 3.625 -14.96875 L 3.625 -14.9375 C 3.582031 -14.789062 3.546875 -14.613281 3.515625 -14.40625 C 3.484375 -14.207031 3.453125 -13.953125 3.421875 -13.640625 C 3.398438 -13.335938 3.378906 -12.972656 3.359375 -12.546875 C 3.347656 -12.117188 3.34375 -11.625 3.34375 -11.0625 L 3.34375 -3.921875 C 3.34375 -3.347656 3.347656 -2.847656 3.359375 -2.421875 C 3.378906 -2.003906 3.398438 -1.640625 3.421875 -1.328125 C 3.453125 -1.023438 3.484375 -0.769531 3.515625 -0.5625 C 3.546875 -0.351562 3.582031 -0.179688 3.625 -0.046875 L 3.625 0 L 1.3125 0 L 1.3125 -0.046875 C 1.351562 -0.179688 1.390625 -0.351562 1.421875 -0.5625 C 1.460938 -0.769531 1.492188 -1.023438 1.515625 -1.328125 C 1.535156 -1.640625 1.554688 -2.003906 1.578125 -2.421875 C 1.597656 -2.847656 1.609375 -3.347656 1.609375 -3.921875 Z M 1.609375 -11.0625 "/></g></g><g style="fill:#000000;fill-opacity:1;"><g transform="translate(82.368777, 26.895567)"><path style="stroke:none" d=""/></g></g><g style="fill:#000000;fill-opacity:1;"><g transform="translate(88.517099, 26.895567)"><path style="stroke:none" d="M 3.546875 -3.921875 C 3.546875 -3.347656 3.550781 -2.847656 3.5625 -2.421875 C 3.582031 -2.003906 3.601562 -1.640625 3.625 -1.328125 C 3.65625 -1.023438 3.6875 -0.769531 3.71875 -0.5625 C 3.757812 -0.351562 3.800781 -0.179688 3.84375 -0.046875 L 3.84375 0 L 1.4375 0 L 1.4375 -0.046875 C 1.476562 -0.179688 1.515625 -0.351562 1.546875 -0.5625 C 1.585938 -0.769531 1.617188 -1.023438 1.640625 -1.328125 C 1.671875 -1.640625 1.691406 -2.003906 1.703125 -2.421875 C 1.710938 -2.847656 1.71875 -3.347656 1.71875 -3.921875 L 1.71875 -10.4375 C 1.71875 -11.007812 1.710938 -11.503906 1.703125 -11.921875 C 1.691406 -12.347656 1.671875 -12.71875 1.640625 -13.03125 C 1.617188 -13.34375 1.585938 -13.597656 1.546875 -13.796875 C 1.515625 -14.003906 1.476562 -14.179688 1.4375 -14.328125 L 1.4375 -14.359375 C 1.988281 -14.359375 2.546875 -14.359375 3.109375 -14.359375 C 3.679688 -14.367188 4.234375 -14.375 4.765625 -14.375 C 5.296875 -14.382812 5.800781 -14.394531 6.28125 -14.40625 C 6.769531 -14.414062 7.207031 -14.421875 7.59375 -14.421875 C 7.976562 -14.429688 8.300781 -14.445312 8.5625 -14.46875 C 8.832031 -14.488281 9.023438 -14.507812 9.140625 -14.53125 L 8.65625 -13.1875 C 8.4375 -13.25 8.179688 -13.304688 7.890625 -13.359375 C 7.628906 -13.390625 7.316406 -13.425781 6.953125 -13.46875 C 6.585938 -13.507812 6.171875 -13.53125 5.703125 -13.53125 C 5.535156 -13.53125 5.332031 -13.523438 5.09375 -13.515625 C 4.851562 -13.503906 4.617188 -13.488281 4.390625 -13.46875 C 4.117188 -13.457031 3.835938 -13.445312 3.546875 -13.4375 L 3.546875 -8.375 C 4.234375 -8.382812 4.863281 -8.40625 5.4375 -8.4375 C 6.007812 -8.46875 6.503906 -8.5 6.921875 -8.53125 C 7.398438 -8.570312 7.832031 -8.617188 8.21875 -8.671875 L 7.921875 -7.21875 C 7.421875 -7.28125 6.914062 -7.335938 6.40625 -7.390625 C 5.957031 -7.441406 5.476562 -7.484375 4.96875 -7.515625 C 4.46875 -7.554688 3.992188 -7.578125 3.546875 -7.578125 Z M 3.546875 -3.921875 "/></g></g><g style="fill:#000000;fill-opacity:1;"><g transform="translate(97.459062, 26.895567)"><path style="stroke:none" d="M 6.03125 0.1875 C 5.289062 0.1875 4.59375 0.0703125 3.9375 -0.15625 C 3.289062 -0.394531 2.726562 -0.738281 2.25 -1.1875 C 1.769531 -1.644531 1.390625 -2.203125 1.109375 -2.859375 C 0.835938 -3.523438 0.703125 -4.289062 0.703125 -5.15625 C 0.703125 -5.90625 0.828125 -6.601562 1.078125 -7.25 C 1.335938 -7.894531 1.691406 -8.453125 2.140625 -8.921875 C 2.585938 -9.398438 3.109375 -9.769531 3.703125 -10.03125 C 4.296875 -10.300781 4.941406 -10.4375 5.640625 -10.4375 C 6.328125 -10.4375 6.960938 -10.316406 7.546875 -10.078125 C 8.140625 -9.847656 8.648438 -9.503906 9.078125 -9.046875 C 9.515625 -8.597656 9.859375 -8.039062 10.109375 -7.375 C 10.359375 -6.707031 10.492188 -5.953125 10.515625 -5.109375 C 9.753906 -5.117188 8.992188 -5.128906 8.234375 -5.140625 C 7.484375 -5.148438 6.703125 -5.15625 5.890625 -5.15625 C 5.304688 -5.15625 4.738281 -5.148438 4.1875 -5.140625 C 3.632812 -5.128906 3.140625 -5.117188 2.703125 -5.109375 C 2.742188 -4.410156 2.851562 -3.78125 3.03125 -3.21875 C 3.207031 -2.664062 3.453125 -2.1875 3.765625 -1.78125 C 4.078125 -1.382812 4.453125 -1.078125 4.890625 -0.859375 C 5.335938 -0.648438 5.84375 -0.546875 6.40625 -0.546875 C 6.789062 -0.546875 7.15625 -0.59375 7.5 -0.6875 C 7.84375 -0.78125 8.15625 -0.90625 8.4375 -1.0625 C 8.71875 -1.21875 8.96875 -1.40625 9.1875 -1.625 C 9.40625 -1.84375 9.59375 -2.078125 9.75 -2.328125 L 9.859375 -2.28125 L 9.125 -0.484375 C 8.757812 -0.296875 8.328125 -0.132812 7.828125 0 C 7.328125 0.125 6.726562 0.1875 6.03125 0.1875 Z M 4.703125 -5.9375 C 5.367188 -5.9375 6.035156 -5.9375 6.703125 -5.9375 C 7.378906 -5.9375 7.988281 -5.945312 8.53125 -5.96875 C 8.46875 -6.550781 8.351562 -7.070312 8.1875 -7.53125 C 8.019531 -7.988281 7.804688 -8.378906 7.546875 -8.703125 C 7.285156 -9.023438 6.976562 -9.269531 6.625 -9.4375 C 6.269531 -9.613281 5.878906 -9.703125 5.453125 -9.703125 C 5.066406 -9.703125 4.710938 -9.617188 4.390625 -9.453125 C 4.066406 -9.285156 3.785156 -9.039062 3.546875 -8.71875 C 3.304688 -8.394531 3.113281 -8 2.96875 -7.53125 C 2.820312 -7.070312 2.734375 -6.546875 2.703125 -5.953125 C 3.003906 -5.941406 3.320312 -5.9375 3.65625 -5.9375 C 3.988281 -5.9375 4.335938 -5.9375 4.703125 -5.9375 Z M 4.703125 -5.9375 "/></g></g><g style="fill:#000000;fill-opacity:1;"><g transform="translate(108.574094, 26.895567)"><path style="stroke:none" d="M 1.609375 -11.0625 C 1.609375 -11.625 1.597656 -12.117188 1.578125 -12.546875 C 1.554688 -12.972656 1.535156 -13.335938 1.515625 -13.640625 C 1.492188 -13.953125 1.460938 -14.207031 1.421875 -14.40625 C 1.390625 -14.613281 1.351562 -14.789062 1.3125 -14.9375 L 1.3125 -14.96875 L 3.625 -14.96875 L 3.625 -14.9375 C 3.582031 -14.789062 3.546875 -14.613281 3.515625 -14.40625 C 3.484375 -14.207031 3.453125 -13.953125 3.421875 -13.640625 C 3.398438 -13.335938 3.378906 -12.972656 3.359375 -12.546875 C 3.347656 -12.117188 3.34375 -11.625 3.34375 -11.0625 L 3.34375 -3.921875 C 3.34375 -3.347656 3.347656 -2.847656 3.359375 -2.421875 C 3.378906 -2.003906 3.398438 -1.640625 3.421875 -1.328125 C 3.453125 -1.023438 3.484375 -0.769531 3.515625 -0.5625 C 3.546875 -0.351562 3.582031 -0.179688 3.625 -0.046875 L 3.625 0 L 1.3125 0 L 1.3125 -0.046875 C 1.351562 -0.179688 1.390625 -0.351562 1.421875 -0.5625 C 1.460938 -0.769531 1.492188 -1.023438 1.515625 -1.328125 C 1.535156 -1.640625 1.554688 -2.003906 1.578125 -2.421875 C 1.597656 -2.847656 1.609375 -3.347656 1.609375 -3.921875 Z M 1.609375 -11.0625 "/></g></g><g style="fill:#000000;fill-opacity:1;"><g transform="translate(113.52079, 26.895567)"><path style="stroke:none" d="M 6.109375 -10.4375 C 6.378906 -10.4375 6.648438 -10.410156 6.921875 -10.359375 C 7.203125 -10.316406 7.472656 -10.25 7.734375 -10.15625 C 7.992188 -10.070312 8.238281 -9.96875 8.46875 -9.84375 C 8.707031 -9.71875 8.921875 -9.578125 9.109375 -9.421875 L 9.109375 -11.0625 C 9.109375 -11.625 9.097656 -12.117188 9.078125 -12.546875 C 9.066406 -12.972656 9.046875 -13.335938 9.015625 -13.640625 C 8.992188 -13.953125 8.96875 -14.207031 8.9375 -14.40625 C 8.90625 -14.613281 8.867188 -14.789062 8.828125 -14.9375 L 8.828125 -14.96875 L 11.140625 -14.96875 L 11.140625 -14.9375 C 11.097656 -14.789062 11.054688 -14.613281 11.015625 -14.40625 C 10.984375 -14.207031 10.957031 -13.953125 10.9375 -13.640625 C 10.914062 -13.335938 10.894531 -12.972656 10.875 -12.546875 C 10.851562 -12.117188 10.84375 -11.625 10.84375 -11.0625 L 10.84375 -3.921875 C 10.84375 -3.347656 10.851562 -2.847656 10.875 -2.421875 C 10.894531 -2.003906 10.914062 -1.640625 10.9375 -1.328125 C 10.957031 -1.023438 10.984375 -0.769531 11.015625 -0.5625 C 11.054688 -0.351562 11.097656 -0.179688 11.140625 -0.046875 L 11.140625 0 L 8.921875 0 L 8.921875 -0.046875 C 8.941406 -0.0976562 8.957031 -0.175781 8.96875 -0.28125 C 8.988281 -0.382812 9.007812 -0.507812 9.03125 -0.65625 C 8.6875 -0.445312 8.253906 -0.253906 7.734375 -0.078125 C 7.222656 0.0976562 6.628906 0.1875 5.953125 0.1875 C 5.160156 0.1875 4.4375 0.0625 3.78125 -0.1875 C 3.132812 -0.4375 2.582031 -0.789062 2.125 -1.25 C 1.664062 -1.707031 1.3125 -2.265625 1.0625 -2.921875 C 0.820312 -3.585938 0.703125 -4.332031 0.703125 -5.15625 C 0.703125 -5.90625 0.832031 -6.601562 1.09375 -7.25 C 1.363281 -7.894531 1.738281 -8.453125 2.21875 -8.921875 C 2.695312 -9.398438 3.265625 -9.769531 3.921875 -10.03125 C 4.585938 -10.300781 5.316406 -10.4375 6.109375 -10.4375 Z M 9.109375 -7.65625 C 8.835938 -8.351562 8.453125 -8.867188 7.953125 -9.203125 C 7.460938 -9.535156 6.90625 -9.703125 6.28125 -9.703125 C 5.757812 -9.703125 5.273438 -9.609375 4.828125 -9.421875 C 4.390625 -9.242188 4.015625 -8.976562 3.703125 -8.625 C 3.390625 -8.28125 3.144531 -7.851562 2.96875 -7.34375 C 2.789062 -6.84375 2.703125 -6.273438 2.703125 -5.640625 C 2.703125 -4.921875 2.78125 -4.25 2.9375 -3.625 C 3.101562 -3 3.335938 -2.457031 3.640625 -2 C 3.953125 -1.550781 4.335938 -1.195312 4.796875 -0.9375 C 5.265625 -0.675781 5.800781 -0.546875 6.40625 -0.546875 C 6.71875 -0.546875 7.007812 -0.582031 7.28125 -0.65625 C 7.550781 -0.726562 7.800781 -0.820312 8.03125 -0.9375 C 8.257812 -1.050781 8.457031 -1.175781 8.625 -1.3125 C 8.800781 -1.445312 8.945312 -1.582031 9.0625 -1.71875 C 9.070312 -2.007812 9.082031 -2.335938 9.09375 -2.703125 C 9.101562 -3.066406 9.109375 -3.472656 9.109375 -3.921875 Z M 9.109375 -7.65625 "/></g></g><g style="fill:#000000;fill-opacity:1;"><g transform="translate(125.907553, 26.895567)"><path style="stroke:none" d="M 6.03125 0.1875 C 5.289062 0.1875 4.59375 0.0703125 3.9375 -0.15625 C 3.289062 -0.394531 2.726562 -0.738281 2.25 -1.1875 C 1.769531 -1.644531 1.390625 -2.203125 1.109375 -2.859375 C 0.835938 -3.523438 0.703125 -4.289062 0.703125 -5.15625 C 0.703125 -5.90625 0.828125 -6.601562 1.078125 -7.25 C 1.335938 -7.894531 1.691406 -8.453125 2.140625 -8.921875 C 2.585938 -9.398438 3.109375 -9.769531 3.703125 -10.03125 C 4.296875 -10.300781 4.941406 -10.4375 5.640625 -10.4375 C 6.328125 -10.4375 6.960938 -10.316406 7.546875 -10.078125 C 8.140625 -9.847656 8.648438 -9.503906 9.078125 -9.046875 C 9.515625 -8.597656 9.859375 -8.039062 10.109375 -7.375 C 10.359375 -6.707031 10.492188 -5.953125 10.515625 -5.109375 C 9.753906 -5.117188 8.992188 -5.128906 8.234375 -5.140625 C 7.484375 -5.148438 6.703125 -5.15625 5.890625 -5.15625 C 5.304688 -5.15625 4.738281 -5.148438 4.1875 -5.140625 C 3.632812 -5.128906 3.140625 -5.117188 2.703125 -5.109375 C 2.742188 -4.410156 2.851562 -3.78125 3.03125 -3.21875 C 3.207031 -2.664062 3.453125 -2.1875 3.765625 -1.78125 C 4.078125 -1.382812 4.453125 -1.078125 4.890625 -0.859375 C 5.335938 -0.648438 5.84375 -0.546875 6.40625 -0.546875 C 6.789062 -0.546875 7.15625 -0.59375 7.5 -0.6875 C 7.84375 -0.78125 8.15625 -0.90625 8.4375 -1.0625 C 8.71875 -1.21875 8.96875 -1.40625 9.1875 -1.625 C 9.40625 -1.84375 9.59375 -2.078125 9.75 -2.328125 L 9.859375 -2.28125 L 9.125 -0.484375 C 8.757812 -0.296875 8.328125 -0.132812 7.828125 0 C 7.328125 0.125 6.726562 0.1875 6.03125 0.1875 Z M 4.703125 -5.9375 C 5.367188 -5.9375 6.035156 -5.9375 6.703125 -5.9375 C 7.378906 -5.9375 7.988281 -5.945312 8.53125 -5.96875 C 8.46875 -6.550781 8.351562 -7.070312 8.1875 -7.53125 C 8.019531 -7.988281 7.804688 -8.378906 7.546875 -8.703125 C 7.285156 -9.023438 6.976562 -9.269531 6.625 -9.4375 C 6.269531 -9.613281 5.878906 -9.703125 5.453125 -9.703125 C 5.066406 -9.703125 4.710938 -9.617188 4.390625 -9.453125 C 4.066406 -9.285156 3.785156 -9.039062 3.546875 -8.71875 C 3.304688 -8.394531 3.113281 -8 2.96875 -7.53125 C 2.820312 -7.070312 2.734375 -6.546875 2.703125 -5.953125 C 3.003906 -5.941406 3.320312 -5.9375 3.65625 -5.9375 C 3.988281 -5.9375 4.335938 -5.9375 4.703125 -5.9375 Z M 4.703125 -5.9375 "/></g></g><g style="fill:#000000;fill-opacity:1;"><g transform="translate(137.022584, 26.895567)"><path style="stroke:none" d="M 1.546875 -6.34375 C 1.546875 -6.90625 1.535156 -7.398438 1.515625 -7.828125 C 1.503906 -8.253906 1.484375 -8.617188 1.453125 -8.921875 C 1.429688 -9.234375 1.398438 -9.488281 1.359375 -9.6875 C 1.328125 -9.894531 1.289062 -10.070312 1.25 -10.21875 L 1.25 -10.265625 L 3.5625 -10.265625 L 3.5625 -10.21875 C 3.507812 -10.0625 3.460938 -9.875 3.421875 -9.65625 C 3.390625 -9.4375 3.363281 -9.15625 3.34375 -8.8125 C 3.59375 -9.007812 3.847656 -9.207031 4.109375 -9.40625 C 4.378906 -9.613281 4.65625 -9.789062 4.9375 -9.9375 C 5.21875 -10.09375 5.503906 -10.21875 5.796875 -10.3125 C 6.085938 -10.40625 6.378906 -10.453125 6.671875 -10.453125 C 6.847656 -10.453125 7.003906 -10.441406 7.140625 -10.421875 C 7.273438 -10.410156 7.394531 -10.390625 7.5 -10.359375 C 7.601562 -10.328125 7.695312 -10.289062 7.78125 -10.25 C 7.875 -10.21875 7.960938 -10.1875 8.046875 -10.15625 L 7.546875 -8.25 L 7.390625 -8.28125 C 7.304688 -8.570312 7.148438 -8.804688 6.921875 -8.984375 C 6.703125 -9.160156 6.40625 -9.25 6.03125 -9.25 C 5.820312 -9.25 5.601562 -9.210938 5.375 -9.140625 C 5.144531 -9.066406 4.914062 -8.960938 4.6875 -8.828125 C 4.457031 -8.703125 4.222656 -8.554688 3.984375 -8.390625 C 3.753906 -8.222656 3.53125 -8.046875 3.3125 -7.859375 C 3.289062 -7.660156 3.28125 -7.445312 3.28125 -7.21875 C 3.28125 -6.988281 3.28125 -6.75 3.28125 -6.5 L 3.28125 -3.921875 C 3.28125 -3.347656 3.285156 -2.847656 3.296875 -2.421875 C 3.316406 -2.003906 3.335938 -1.640625 3.359375 -1.328125 C 3.390625 -1.023438 3.421875 -0.769531 3.453125 -0.5625 C 3.484375 -0.351562 3.519531 -0.179688 3.5625 -0.046875 L 3.5625 0 L 1.25 0 L 1.25 -0.046875 C 1.289062 -0.179688 1.328125 -0.351562 1.359375 -0.5625 C 1.398438 -0.769531 1.429688 -1.023438 1.453125 -1.328125 C 1.484375 -1.640625 1.503906 -2.003906 1.515625 -2.421875 C 1.535156 -2.847656 1.546875 -3.347656 1.546875 -3.921875 Z M 1.546875 -6.34375 "/></g></g><g style="fill:#000000;fill-opacity:1;"><g transform="translate(145.065183, 26.895567)"><path style="stroke:none" d=""/></g></g></g></svg>