<svg xmlns="http://www.w3.org/2000/svg" xmlns:xlink="http://www.w3.org/1999/xlink" width="500" zoomAndPan="magnify" viewBox="0 0 375 374.999991" height="500" preserveAspectRatio="xMidYMid meet" version="1.2"><defs/><g id="d2ab0a91c8"><g style="fill:#000000;fill-opacity:1;"><g transform="translate(3.621785, 214.465564)"><path style="stroke:none" d="M 16.84375 0.796875 C 16.769531 0.796875 16.664062 0.644531 16.53125 0.34375 C 16.40625 0.0507812 16.273438 -0.265625 16.140625 -0.609375 L 5.28125 -27.84375 C 4.875 -28.71875 4.382812 -29.429688 3.8125 -29.984375 C 3.25 -30.535156 2.53125 -30.929688 1.65625 -31.171875 C 1.125 -31.335938 0.710938 -31.503906 0.421875 -31.671875 C 0.140625 -31.835938 0 -32.035156 0 -32.265625 C 0 -32.472656 0.128906 -32.617188 0.390625 -32.703125 C 0.660156 -32.785156 1.015625 -32.828125 1.453125 -32.828125 C 2.222656 -32.828125 2.953125 -32.800781 3.640625 -32.75 C 4.328125 -32.695312 5.09375 -32.671875 5.9375 -32.671875 C 6.875 -32.671875 7.757812 -32.6875 8.59375 -32.71875 C 9.4375 -32.75 10.109375 -32.765625 10.609375 -32.765625 C 11.046875 -32.765625 11.394531 -32.722656 11.65625 -32.640625 C 11.925781 -32.554688 12.0625 -32.414062 12.0625 -32.21875 C 12.0625 -31.988281 11.925781 -31.804688 11.65625 -31.671875 C 11.394531 -31.535156 10.976562 -31.382812 10.40625 -31.21875 C 10 -31.113281 9.726562 -30.898438 9.59375 -30.578125 C 9.46875 -30.265625 9.40625 -29.925781 9.40625 -29.5625 C 9.40625 -29.019531 9.46875 -28.519531 9.59375 -28.0625 C 9.726562 -27.613281 9.796875 -27.390625 9.796875 -27.390625 C 10.566406 -25.453125 11.269531 -23.675781 11.90625 -22.0625 C 12.550781 -20.457031 13.179688 -18.910156 13.796875 -17.421875 C 14.421875 -15.929688 15.070312 -14.40625 15.75 -12.84375 C 16.4375 -11.28125 17.203125 -9.546875 18.046875 -7.640625 C 18.210938 -7.273438 18.351562 -7.109375 18.46875 -7.140625 C 18.59375 -7.171875 18.703125 -7.320312 18.796875 -7.59375 L 22.71875 -17.296875 C 22.820312 -17.554688 22.894531 -17.78125 22.9375 -17.96875 C 22.988281 -18.15625 23.015625 -18.316406 23.015625 -18.453125 C 23.015625 -18.648438 22.984375 -18.859375 22.921875 -19.078125 C 22.859375 -19.296875 22.757812 -19.570312 22.625 -19.90625 L 19.75 -27.046875 C 19.3125 -28.117188 18.625 -29.015625 17.6875 -29.734375 C 16.75 -30.453125 15.847656 -30.929688 14.984375 -31.171875 C 14.441406 -31.335938 14.03125 -31.503906 13.75 -31.671875 C 13.46875 -31.835938 13.328125 -32.035156 13.328125 -32.265625 C 13.328125 -32.472656 13.457031 -32.617188 13.71875 -32.703125 C 13.988281 -32.785156 14.34375 -32.828125 14.78125 -32.828125 C 15.3125 -32.828125 15.820312 -32.804688 16.3125 -32.765625 C 16.800781 -32.734375 17.300781 -32.707031 17.8125 -32.6875 C 18.332031 -32.675781 18.894531 -32.671875 19.5 -32.671875 C 20.269531 -32.671875 20.984375 -32.6875 21.640625 -32.71875 C 22.296875 -32.75 22.875 -32.765625 23.375 -32.765625 C 23.8125 -32.765625 24.160156 -32.722656 24.421875 -32.640625 C 24.691406 -32.554688 24.828125 -32.414062 24.828125 -32.21875 C 24.828125 -31.945312 24.660156 -31.726562 24.328125 -31.5625 C 23.992188 -31.394531 23.648438 -31.210938 23.296875 -31.015625 C 22.941406 -30.816406 22.765625 -30.515625 22.765625 -30.109375 C 22.765625 -30.046875 22.773438 -29.976562 22.796875 -29.90625 C 22.816406 -29.84375 22.84375 -29.773438 22.875 -29.703125 C 22.9375 -29.566406 23.0625 -29.238281 23.25 -28.71875 C 23.4375 -28.207031 23.65625 -27.628906 23.90625 -26.984375 C 24.15625 -26.347656 24.394531 -25.753906 24.625 -25.203125 C 24.863281 -24.648438 25.03125 -24.257812 25.125 -24.03125 C 25.300781 -23.625 25.445312 -23.410156 25.5625 -23.390625 C 25.675781 -23.378906 25.832031 -23.59375 26.03125 -24.03125 C 26.300781 -24.632812 26.578125 -25.320312 26.859375 -26.09375 C 27.148438 -26.863281 27.40625 -27.59375 27.625 -28.28125 C 27.84375 -28.96875 27.984375 -29.441406 28.046875 -29.703125 C 28.078125 -29.804688 28.09375 -29.925781 28.09375 -30.0625 C 28.09375 -30.457031 27.941406 -30.753906 27.640625 -30.953125 C 27.335938 -31.160156 27.023438 -31.351562 26.703125 -31.53125 C 26.390625 -31.71875 26.234375 -31.945312 26.234375 -32.21875 C 26.234375 -32.414062 26.367188 -32.554688 26.640625 -32.640625 C 26.910156 -32.722656 27.265625 -32.765625 27.703125 -32.765625 C 28.429688 -32.765625 28.929688 -32.75 29.203125 -32.71875 C 29.472656 -32.6875 29.84375 -32.671875 30.3125 -32.671875 C 30.882812 -32.671875 31.367188 -32.695312 31.765625 -32.75 C 32.171875 -32.800781 32.675781 -32.828125 33.28125 -32.828125 C 33.707031 -32.828125 34.054688 -32.785156 34.328125 -32.703125 C 34.597656 -32.617188 34.734375 -32.472656 34.734375 -32.265625 C 34.734375 -32.035156 34.597656 -31.84375 34.328125 -31.6875 C 34.054688 -31.539062 33.640625 -31.398438 33.078125 -31.265625 C 32.003906 -31.023438 31.273438 -30.738281 30.890625 -30.40625 C 30.503906 -30.070312 30.09375 -29.554688 29.65625 -28.859375 C 29.488281 -28.554688 29.242188 -28.050781 28.921875 -27.34375 C 28.609375 -26.632812 28.273438 -25.863281 27.921875 -25.03125 C 27.566406 -24.195312 27.257812 -23.410156 27 -22.671875 C 26.894531 -22.429688 26.800781 -22.09375 26.71875 -21.65625 C 26.632812 -21.226562 26.625 -20.929688 26.6875 -20.765625 L 31.875 -7.4375 C 31.9375 -7.269531 32.015625 -7.21875 32.109375 -7.28125 C 32.210938 -7.351562 32.316406 -7.503906 32.421875 -7.734375 C 33.253906 -9.953125 34.195312 -12.785156 35.25 -16.234375 C 36.3125 -19.679688 37.410156 -23.332031 38.546875 -27.1875 C 38.648438 -27.488281 38.726562 -27.796875 38.78125 -28.109375 C 38.832031 -28.429688 38.859375 -28.726562 38.859375 -29 C 38.859375 -29.5 38.75 -29.953125 38.53125 -30.359375 C 38.3125 -30.765625 37.914062 -31.035156 37.34375 -31.171875 C 37.007812 -31.265625 36.648438 -31.394531 36.265625 -31.5625 C 35.878906 -31.726562 35.6875 -31.929688 35.6875 -32.171875 C 35.6875 -32.367188 35.820312 -32.507812 36.09375 -32.59375 C 36.363281 -32.675781 36.710938 -32.71875 37.140625 -32.71875 C 37.816406 -32.71875 38.429688 -32.707031 38.984375 -32.6875 C 39.535156 -32.675781 40.128906 -32.671875 40.765625 -32.671875 C 41.597656 -32.671875 42.398438 -32.695312 43.171875 -32.75 C 43.941406 -32.800781 44.648438 -32.828125 45.296875 -32.828125 C 45.722656 -32.828125 46.070312 -32.785156 46.34375 -32.703125 C 46.613281 -32.617188 46.75 -32.472656 46.75 -32.265625 C 46.75 -32.035156 46.613281 -31.84375 46.34375 -31.6875 C 46.070312 -31.539062 45.65625 -31.398438 45.09375 -31.265625 C 44.28125 -31.097656 43.597656 -30.753906 43.046875 -30.234375 C 42.492188 -29.710938 42.054688 -29.140625 41.734375 -28.515625 C 41.421875 -27.898438 41.164062 -27.34375 40.96875 -26.84375 L 32.0625 -0.546875 C 32.03125 -0.421875 31.929688 -0.195312 31.765625 0.125 C 31.597656 0.445312 31.429688 0.609375 31.265625 0.609375 C 31.128906 0.609375 30.976562 0.503906 30.8125 0.296875 C 30.644531 0.0976562 30.507812 -0.117188 30.40625 -0.359375 C 29.539062 -2.367188 28.785156 -4.164062 28.140625 -5.75 C 27.503906 -7.34375 26.894531 -8.941406 26.3125 -10.546875 C 25.726562 -12.160156 25.035156 -13.941406 24.234375 -15.890625 C 24.128906 -16.117188 24.039062 -16.207031 23.96875 -16.15625 C 23.90625 -16.101562 23.804688 -15.910156 23.671875 -15.578125 C 22.867188 -13.671875 22.171875 -11.976562 21.578125 -10.5 C 20.992188 -9.03125 20.414062 -7.53125 19.84375 -6 C 19.28125 -4.476562 18.644531 -2.726562 17.9375 -0.75 C 17.8125 -0.414062 17.644531 -0.078125 17.4375 0.265625 C 17.238281 0.617188 17.039062 0.796875 16.84375 0.796875 Z M 16.84375 0.796875 "/></g></g><g style="fill:#000000;fill-opacity:1;"><g transform="translate(49.669414, 214.465564)"><path style="stroke:none" d="M 18.703125 0.703125 C 15.710938 0.703125 13.210938 0.175781 11.203125 -0.875 C 9.191406 -1.9375 7.679688 -3.429688 6.671875 -5.359375 C 5.671875 -7.285156 5.171875 -9.519531 5.171875 -12.0625 L 5.171875 -27.5 C 5.171875 -28.707031 4.925781 -29.585938 4.4375 -30.140625 C 3.957031 -30.691406 3.429688 -31.035156 2.859375 -31.171875 C 1.753906 -31.460938 1.203125 -31.828125 1.203125 -32.265625 C 1.203125 -32.472656 1.335938 -32.617188 1.609375 -32.703125 C 1.878906 -32.785156 2.234375 -32.828125 2.671875 -32.828125 C 3.429688 -32.828125 4.1875 -32.800781 4.9375 -32.75 C 5.695312 -32.695312 6.546875 -32.671875 7.484375 -32.671875 C 8.253906 -32.671875 8.984375 -32.6875 9.671875 -32.71875 C 10.359375 -32.75 10.972656 -32.765625 11.515625 -32.765625 C 11.953125 -32.765625 12.300781 -32.722656 12.5625 -32.640625 C 12.832031 -32.554688 12.96875 -32.414062 12.96875 -32.21875 C 12.96875 -31.988281 12.832031 -31.804688 12.5625 -31.671875 C 12.300781 -31.535156 11.882812 -31.382812 11.3125 -31.21875 C 10.90625 -31.082031 10.453125 -30.695312 9.953125 -30.0625 C 9.453125 -29.425781 9.203125 -28.601562 9.203125 -27.59375 L 9.203125 -13.46875 C 9.203125 -10.789062 9.648438 -8.585938 10.546875 -6.859375 C 11.453125 -5.128906 12.703125 -3.851562 14.296875 -3.03125 C 15.890625 -2.21875 17.707031 -1.8125 19.75 -1.8125 C 23.207031 -1.8125 25.738281 -3.007812 27.34375 -5.40625 C 28.945312 -7.800781 29.75 -10.957031 29.75 -14.875 C 29.75 -15.613281 29.738281 -16.585938 29.71875 -17.796875 C 29.707031 -19.003906 29.6875 -20.300781 29.65625 -21.6875 C 29.625 -23.082031 29.59375 -24.414062 29.5625 -25.6875 C 29.5625 -26.5625 29.484375 -27.382812 29.328125 -28.15625 C 29.179688 -28.925781 28.957031 -29.585938 28.65625 -30.140625 C 28.351562 -30.691406 27.96875 -31.035156 27.5 -31.171875 C 27.164062 -31.265625 26.804688 -31.394531 26.421875 -31.5625 C 26.035156 -31.726562 25.84375 -31.929688 25.84375 -32.171875 C 25.84375 -32.367188 25.972656 -32.507812 26.234375 -32.59375 C 26.503906 -32.675781 26.859375 -32.71875 27.296875 -32.71875 C 28.066406 -32.71875 28.703125 -32.707031 29.203125 -32.6875 C 29.703125 -32.675781 30.320312 -32.671875 31.0625 -32.671875 C 31.601562 -32.671875 32.109375 -32.675781 32.578125 -32.6875 C 33.046875 -32.707031 33.492188 -32.734375 33.921875 -32.765625 C 34.359375 -32.804688 34.765625 -32.828125 35.140625 -32.828125 C 35.578125 -32.828125 35.925781 -32.785156 36.1875 -32.703125 C 36.457031 -32.617188 36.59375 -32.472656 36.59375 -32.265625 C 36.59375 -31.828125 36.039062 -31.492188 34.9375 -31.265625 C 34.0625 -31.097656 33.4375 -30.675781 33.0625 -30 C 32.695312 -29.332031 32.484375 -28.5 32.421875 -27.5 C 32.253906 -24.613281 32.144531 -21.976562 32.09375 -19.59375 C 32.039062 -17.21875 31.984375 -14.875 31.921875 -12.5625 C 31.847656 -9.988281 31.222656 -7.695312 30.046875 -5.6875 C 28.878906 -3.675781 27.316406 -2.109375 25.359375 -0.984375 C 23.398438 0.140625 21.179688 0.703125 18.703125 0.703125 Z M 18.703125 0.703125 "/></g></g><g style="fill:#000000;fill-opacity:1;"><g transform="translate(86.768925, 214.465564)"><path style="stroke:none" d="M 33.578125 0.859375 C 33.273438 0.859375 32.675781 0.601562 31.78125 0.09375 C 30.894531 -0.40625 30.050781 -1.207031 29.25 -2.3125 C 29.113281 -2.476562 28.703125 -2.976562 28.015625 -3.8125 C 27.335938 -4.65625 26.46875 -5.703125 25.40625 -6.953125 C 24.351562 -8.210938 23.207031 -9.578125 21.96875 -11.046875 C 20.726562 -12.523438 19.488281 -14 18.25 -15.46875 C 17.007812 -16.945312 15.851562 -18.316406 14.78125 -19.578125 C 13.707031 -20.835938 12.8125 -21.894531 12.09375 -22.75 C 11.375 -23.601562 10.925781 -24.128906 10.75 -24.328125 C 10.519531 -24.628906 10.320312 -24.835938 10.15625 -24.953125 C 9.988281 -25.066406 9.835938 -25.125 9.703125 -25.125 C 9.535156 -25.125 9.414062 -25 9.34375 -24.75 C 9.28125 -24.5 9.25 -24.273438 9.25 -24.078125 C 9.21875 -22.429688 9.179688 -20.535156 9.140625 -18.390625 C 9.109375 -16.253906 9.078125 -14.046875 9.046875 -11.765625 C 9.015625 -9.484375 9 -7.304688 9 -5.234375 C 9 -4.328125 9.222656 -3.488281 9.671875 -2.71875 C 10.128906 -1.945312 10.976562 -1.441406 12.21875 -1.203125 C 12.78125 -1.109375 13.195312 -0.992188 13.46875 -0.859375 C 13.738281 -0.722656 13.875 -0.535156 13.875 -0.296875 C 13.875 -0.0976562 13.738281 0.0390625 13.46875 0.125 C 13.195312 0.207031 12.847656 0.25 12.421875 0.25 C 11.515625 0.25 10.832031 0.222656 10.375 0.171875 C 9.925781 0.117188 9.523438 0.078125 9.171875 0.046875 C 8.816406 0.015625 8.320312 0 7.6875 0 C 7.082031 0 6.613281 0.015625 6.28125 0.046875 C 5.945312 0.078125 5.5625 0.117188 5.125 0.171875 C 4.6875 0.222656 4.015625 0.25 3.109375 0.25 C 2.679688 0.25 2.332031 0.207031 2.0625 0.125 C 1.789062 0.0390625 1.65625 -0.0976562 1.65625 -0.296875 C 1.65625 -0.535156 1.789062 -0.722656 2.0625 -0.859375 C 2.332031 -0.992188 2.75 -1.125 3.3125 -1.25 C 4.289062 -1.519531 4.992188 -2.015625 5.421875 -2.734375 C 5.859375 -3.453125 6.128906 -4.332031 6.234375 -5.375 C 6.367188 -6.644531 6.503906 -8.328125 6.640625 -10.421875 C 6.773438 -12.523438 6.890625 -14.875 6.984375 -17.46875 C 7.085938 -20.0625 7.140625 -22.734375 7.140625 -25.484375 C 7.140625 -27.265625 6.675781 -28.535156 5.75 -29.296875 C 4.832031 -30.066406 3.632812 -30.691406 2.15625 -31.171875 C 2.019531 -31.234375 1.726562 -31.375 1.28125 -31.59375 C 0.832031 -31.8125 0.609375 -32.070312 0.609375 -32.375 C 0.609375 -32.675781 0.757812 -32.867188 1.0625 -32.953125 C 1.363281 -33.035156 1.597656 -33.078125 1.765625 -33.078125 C 2.734375 -33.046875 3.519531 -33.019531 4.125 -33 C 4.726562 -32.976562 5.265625 -32.953125 5.734375 -32.921875 C 6.203125 -32.890625 6.71875 -32.863281 7.28125 -32.84375 C 7.851562 -32.832031 8.59375 -32.828125 9.5 -32.828125 C 9.800781 -32.828125 10.035156 -32.742188 10.203125 -32.578125 C 10.367188 -32.410156 10.535156 -32.207031 10.703125 -31.96875 C 10.835938 -31.769531 11.28125 -31.207031 12.03125 -30.28125 C 12.789062 -29.363281 13.726562 -28.207031 14.84375 -26.8125 C 15.96875 -25.425781 17.203125 -23.921875 18.546875 -22.296875 C 19.890625 -20.671875 21.226562 -19.046875 22.5625 -17.421875 C 23.90625 -15.796875 25.144531 -14.285156 26.28125 -12.890625 C 27.425781 -11.503906 28.375 -10.359375 29.125 -9.453125 C 29.882812 -8.546875 30.328125 -8.007812 30.453125 -7.84375 C 30.585938 -7.707031 30.78125 -7.503906 31.03125 -7.234375 C 31.289062 -6.972656 31.519531 -6.84375 31.71875 -6.84375 C 32.019531 -6.84375 32.1875 -7.191406 32.21875 -7.890625 C 32.21875 -8.359375 32.222656 -9.253906 32.234375 -10.578125 C 32.253906 -11.898438 32.273438 -13.507812 32.296875 -15.40625 C 32.316406 -17.300781 32.328125 -19.351562 32.328125 -21.5625 C 32.328125 -23.769531 32.328125 -26.03125 32.328125 -28.34375 C 32.285156 -29.019531 31.929688 -29.625 31.265625 -30.15625 C 30.597656 -30.695312 29.976562 -31.015625 29.40625 -31.109375 C 28.832031 -31.210938 28.3125 -31.347656 27.84375 -31.515625 C 27.375 -31.679688 27.140625 -31.882812 27.140625 -32.125 C 27.140625 -32.320312 27.375 -32.460938 27.84375 -32.546875 C 28.3125 -32.628906 28.765625 -32.671875 29.203125 -32.671875 C 29.535156 -32.671875 29.859375 -32.671875 30.171875 -32.671875 C 30.492188 -32.671875 30.8125 -32.671875 31.125 -32.671875 C 31.445312 -32.671875 31.757812 -32.671875 32.0625 -32.671875 C 32.875 -32.671875 33.515625 -32.675781 33.984375 -32.6875 C 34.453125 -32.707031 34.960938 -32.734375 35.515625 -32.765625 C 36.066406 -32.804688 36.84375 -32.828125 37.84375 -32.828125 C 38.28125 -32.828125 38.632812 -32.785156 38.90625 -32.703125 C 39.175781 -32.617188 39.3125 -32.472656 39.3125 -32.265625 C 39.3125 -31.796875 38.757812 -31.460938 37.65625 -31.265625 C 36.414062 -31.023438 35.59375 -30.722656 35.1875 -30.359375 C 34.78125 -29.992188 34.546875 -29.390625 34.484375 -28.546875 C 34.484375 -28.378906 34.472656 -27.722656 34.453125 -26.578125 C 34.441406 -25.441406 34.4375 -24.003906 34.4375 -22.265625 C 34.4375 -20.523438 34.425781 -18.648438 34.40625 -16.640625 C 34.382812 -14.628906 34.375 -12.625 34.375 -10.625 C 34.375 -8.632812 34.375 -6.851562 34.375 -5.28125 C 34.375 -4.476562 34.398438 -3.75 34.453125 -3.09375 C 34.503906 -2.4375 34.546875 -1.878906 34.578125 -1.421875 C 34.617188 -0.972656 34.640625 -0.632812 34.640625 -0.40625 C 34.640625 0.132812 34.53125 0.476562 34.3125 0.625 C 34.09375 0.78125 33.847656 0.859375 33.578125 0.859375 Z M 33.578125 0.859375 "/></g></g><g style="fill:#000000;fill-opacity:1;"><g transform="translate(126.583018, 214.465564)"><path style="stroke:none" d="M 18.703125 0.703125 C 15.710938 0.703125 13.210938 0.175781 11.203125 -0.875 C 9.191406 -1.9375 7.679688 -3.429688 6.671875 -5.359375 C 5.671875 -7.285156 5.171875 -9.519531 5.171875 -12.0625 L 5.171875 -27.5 C 5.171875 -28.707031 4.925781 -29.585938 4.4375 -30.140625 C 3.957031 -30.691406 3.429688 -31.035156 2.859375 -31.171875 C 1.753906 -31.460938 1.203125 -31.828125 1.203125 -32.265625 C 1.203125 -32.472656 1.335938 -32.617188 1.609375 -32.703125 C 1.878906 -32.785156 2.234375 -32.828125 2.671875 -32.828125 C 3.429688 -32.828125 4.1875 -32.800781 4.9375 -32.75 C 5.695312 -32.695312 6.546875 -32.671875 7.484375 -32.671875 C 8.253906 -32.671875 8.984375 -32.6875 9.671875 -32.71875 C 10.359375 -32.75 10.972656 -32.765625 11.515625 -32.765625 C 11.953125 -32.765625 12.300781 -32.722656 12.5625 -32.640625 C 12.832031 -32.554688 12.96875 -32.414062 12.96875 -32.21875 C 12.96875 -31.988281 12.832031 -31.804688 12.5625 -31.671875 C 12.300781 -31.535156 11.882812 -31.382812 11.3125 -31.21875 C 10.90625 -31.082031 10.453125 -30.695312 9.953125 -30.0625 C 9.453125 -29.425781 9.203125 -28.601562 9.203125 -27.59375 L 9.203125 -13.46875 C 9.203125 -10.789062 9.648438 -8.585938 10.546875 -6.859375 C 11.453125 -5.128906 12.703125 -3.851562 14.296875 -3.03125 C 15.890625 -2.21875 17.707031 -1.8125 19.75 -1.8125 C 23.207031 -1.8125 25.738281 -3.007812 27.34375 -5.40625 C 28.945312 -7.800781 29.75 -10.957031 29.75 -14.875 C 29.75 -15.613281 29.738281 -16.585938 29.71875 -17.796875 C 29.707031 -19.003906 29.6875 -20.300781 29.65625 -21.6875 C 29.625 -23.082031 29.59375 -24.414062 29.5625 -25.6875 C 29.5625 -26.5625 29.484375 -27.382812 29.328125 -28.15625 C 29.179688 -28.925781 28.957031 -29.585938 28.65625 -30.140625 C 28.351562 -30.691406 27.96875 -31.035156 27.5 -31.171875 C 27.164062 -31.265625 26.804688 -31.394531 26.421875 -31.5625 C 26.035156 -31.726562 25.84375 -31.929688 25.84375 -32.171875 C 25.84375 -32.367188 25.972656 -32.507812 26.234375 -32.59375 C 26.503906 -32.675781 26.859375 -32.71875 27.296875 -32.71875 C 28.066406 -32.71875 28.703125 -32.707031 29.203125 -32.6875 C 29.703125 -32.675781 30.320312 -32.671875 31.0625 -32.671875 C 31.601562 -32.671875 32.109375 -32.675781 32.578125 -32.6875 C 33.046875 -32.707031 33.492188 -32.734375 33.921875 -32.765625 C 34.359375 -32.804688 34.765625 -32.828125 35.140625 -32.828125 C 35.578125 -32.828125 35.925781 -32.785156 36.1875 -32.703125 C 36.457031 -32.617188 36.59375 -32.472656 36.59375 -32.265625 C 36.59375 -31.828125 36.039062 -31.492188 34.9375 -31.265625 C 34.0625 -31.097656 33.4375 -30.675781 33.0625 -30 C 32.695312 -29.332031 32.484375 -28.5 32.421875 -27.5 C 32.253906 -24.613281 32.144531 -21.976562 32.09375 -19.59375 C 32.039062 -17.21875 31.984375 -14.875 31.921875 -12.5625 C 31.847656 -9.988281 31.222656 -7.695312 30.046875 -5.6875 C 28.878906 -3.675781 27.316406 -2.109375 25.359375 -0.984375 C 23.398438 0.140625 21.179688 0.703125 18.703125 0.703125 Z M 18.703125 0.703125 "/></g></g><g style="fill:#000000;fill-opacity:1;"><g transform="translate(163.682528, 214.465564)"><path style="stroke:none" d="M 15.984375 0.609375 C 15.710938 0.609375 15.53125 0.488281 15.4375 0.25 C 15.300781 -0.113281 15.128906 -0.601562 14.921875 -1.21875 C 14.722656 -1.84375 14.539062 -2.375 14.375 -2.8125 L 5.171875 -27.5 C 4.835938 -28.4375 4.382812 -29.222656 3.8125 -29.859375 C 3.25 -30.492188 2.53125 -30.929688 1.65625 -31.171875 C 1.125 -31.335938 0.710938 -31.503906 0.421875 -31.671875 C 0.140625 -31.835938 0 -32.035156 0 -32.265625 C 0 -32.472656 0.128906 -32.617188 0.390625 -32.703125 C 0.660156 -32.785156 1.015625 -32.828125 1.453125 -32.828125 C 1.992188 -32.828125 2.585938 -32.804688 3.234375 -32.765625 C 3.890625 -32.734375 4.585938 -32.707031 5.328125 -32.6875 C 6.066406 -32.675781 6.820312 -32.671875 7.59375 -32.671875 C 8.257812 -32.671875 8.921875 -32.675781 9.578125 -32.6875 C 10.234375 -32.707031 10.835938 -32.722656 11.390625 -32.734375 C 11.941406 -32.753906 12.382812 -32.765625 12.71875 -32.765625 C 13.15625 -32.765625 13.503906 -32.722656 13.765625 -32.640625 C 14.035156 -32.554688 14.171875 -32.414062 14.171875 -32.21875 C 14.171875 -31.988281 14.035156 -31.78125 13.765625 -31.59375 C 13.503906 -31.40625 13.085938 -31.28125 12.515625 -31.21875 C 11.578125 -31.113281 10.796875 -30.898438 10.171875 -30.578125 C 9.554688 -30.265625 9.25 -29.820312 9.25 -29.25 C 9.25 -28.6875 9.320312 -28.191406 9.46875 -27.765625 C 9.625 -27.347656 9.734375 -27.023438 9.796875 -26.796875 L 17.046875 -7.6875 C 17.109375 -7.550781 17.1875 -7.46875 17.28125 -7.4375 C 17.382812 -7.40625 17.488281 -7.503906 17.59375 -7.734375 L 24.484375 -25.84375 C 25.148438 -27.613281 25.1875 -28.910156 24.59375 -29.734375 C 24.007812 -30.554688 23.179688 -31.035156 22.109375 -31.171875 C 21.609375 -31.234375 21.207031 -31.351562 20.90625 -31.53125 C 20.601562 -31.71875 20.453125 -31.929688 20.453125 -32.171875 C 20.453125 -32.367188 20.585938 -32.507812 20.859375 -32.59375 C 21.128906 -32.675781 21.484375 -32.71875 21.921875 -32.71875 C 22.347656 -32.71875 22.828125 -32.71875 23.359375 -32.71875 C 23.898438 -32.71875 24.460938 -32.707031 25.046875 -32.6875 C 25.640625 -32.675781 26.253906 -32.671875 26.890625 -32.671875 C 27.859375 -32.671875 28.894531 -32.695312 30 -32.75 C 31.113281 -32.800781 31.988281 -32.828125 32.625 -32.828125 C 33.0625 -32.828125 33.410156 -32.785156 33.671875 -32.703125 C 33.941406 -32.617188 34.078125 -32.472656 34.078125 -32.265625 C 34.078125 -32.035156 33.941406 -31.84375 33.671875 -31.6875 C 33.410156 -31.539062 32.992188 -31.398438 32.421875 -31.265625 C 31.179688 -30.992188 30.140625 -30.421875 29.296875 -29.546875 C 28.460938 -28.679688 27.863281 -27.796875 27.5 -26.890625 L 18.046875 -3.96875 C 17.972656 -3.800781 17.84375 -3.457031 17.65625 -2.9375 C 17.476562 -2.414062 17.285156 -1.851562 17.078125 -1.25 C 16.878906 -0.65625 16.679688 -0.15625 16.484375 0.25 C 16.453125 0.351562 16.382812 0.4375 16.28125 0.5 C 16.1875 0.570312 16.085938 0.609375 15.984375 0.609375 Z M 15.984375 0.609375 "/></g></g><g style="fill:#000000;fill-opacity:1;"><g transform="translate(197.464205, 214.465564)"><path style="stroke:none" d="M 18.703125 0.703125 C 15.710938 0.703125 13.210938 0.175781 11.203125 -0.875 C 9.191406 -1.9375 7.679688 -3.429688 6.671875 -5.359375 C 5.671875 -7.285156 5.171875 -9.519531 5.171875 -12.0625 L 5.171875 -27.5 C 5.171875 -28.707031 4.925781 -29.585938 4.4375 -30.140625 C 3.957031 -30.691406 3.429688 -31.035156 2.859375 -31.171875 C 1.753906 -31.460938 1.203125 -31.828125 1.203125 -32.265625 C 1.203125 -32.472656 1.335938 -32.617188 1.609375 -32.703125 C 1.878906 -32.785156 2.234375 -32.828125 2.671875 -32.828125 C 3.429688 -32.828125 4.1875 -32.800781 4.9375 -32.75 C 5.695312 -32.695312 6.546875 -32.671875 7.484375 -32.671875 C 8.253906 -32.671875 8.984375 -32.6875 9.671875 -32.71875 C 10.359375 -32.75 10.972656 -32.765625 11.515625 -32.765625 C 11.953125 -32.765625 12.300781 -32.722656 12.5625 -32.640625 C 12.832031 -32.554688 12.96875 -32.414062 12.96875 -32.21875 C 12.96875 -31.988281 12.832031 -31.804688 12.5625 -31.671875 C 12.300781 -31.535156 11.882812 -31.382812 11.3125 -31.21875 C 10.90625 -31.082031 10.453125 -30.695312 9.953125 -30.0625 C 9.453125 -29.425781 9.203125 -28.601562 9.203125 -27.59375 L 9.203125 -13.46875 C 9.203125 -10.789062 9.648438 -8.585938 10.546875 -6.859375 C 11.453125 -5.128906 12.703125 -3.851562 14.296875 -3.03125 C 15.890625 -2.21875 17.707031 -1.8125 19.75 -1.8125 C 23.207031 -1.8125 25.738281 -3.007812 27.34375 -5.40625 C 28.945312 -7.800781 29.75 -10.957031 29.75 -14.875 C 29.75 -15.613281 29.738281 -16.585938 29.71875 -17.796875 C 29.707031 -19.003906 29.6875 -20.300781 29.65625 -21.6875 C 29.625 -23.082031 29.59375 -24.414062 29.5625 -25.6875 C 29.5625 -26.5625 29.484375 -27.382812 29.328125 -28.15625 C 29.179688 -28.925781 28.957031 -29.585938 28.65625 -30.140625 C 28.351562 -30.691406 27.96875 -31.035156 27.5 -31.171875 C 27.164062 -31.265625 26.804688 -31.394531 26.421875 -31.5625 C 26.035156 -31.726562 25.84375 -31.929688 25.84375 -32.171875 C 25.84375 -32.367188 25.972656 -32.507812 26.234375 -32.59375 C 26.503906 -32.675781 26.859375 -32.71875 27.296875 -32.71875 C 28.066406 -32.71875 28.703125 -32.707031 29.203125 -32.6875 C 29.703125 -32.675781 30.320312 -32.671875 31.0625 -32.671875 C 31.601562 -32.671875 32.109375 -32.675781 32.578125 -32.6875 C 33.046875 -32.707031 33.492188 -32.734375 33.921875 -32.765625 C 34.359375 -32.804688 34.765625 -32.828125 35.140625 -32.828125 C 35.578125 -32.828125 35.925781 -32.785156 36.1875 -32.703125 C 36.457031 -32.617188 36.59375 -32.472656 36.59375 -32.265625 C 36.59375 -31.828125 36.039062 -31.492188 34.9375 -31.265625 C 34.0625 -31.097656 33.4375 -30.675781 33.0625 -30 C 32.695312 -29.332031 32.484375 -28.5 32.421875 -27.5 C 32.253906 -24.613281 32.144531 -21.976562 32.09375 -19.59375 C 32.039062 -17.21875 31.984375 -14.875 31.921875 -12.5625 C 31.847656 -9.988281 31.222656 -7.695312 30.046875 -5.6875 C 28.878906 -3.675781 27.316406 -2.109375 25.359375 -0.984375 C 23.398438 0.140625 21.179688 0.703125 18.703125 0.703125 Z M 18.703125 0.703125 "/></g></g><g style="fill:#000000;fill-opacity:1;"><g transform="translate(234.563716, 214.465564)"><path style="stroke:none" d="M 10.25 0.796875 C 8.84375 0.796875 7.546875 0.585938 6.359375 0.171875 C 5.171875 -0.242188 4.109375 -0.835938 3.171875 -1.609375 C 3.035156 -1.742188 2.90625 -1.894531 2.78125 -2.0625 C 2.664062 -2.226562 2.578125 -2.410156 2.515625 -2.609375 C 2.347656 -3.285156 2.238281 -4.160156 2.1875 -5.234375 C 2.132812 -6.304688 2.078125 -7.191406 2.015625 -7.890625 C 2.015625 -8.128906 2.113281 -8.304688 2.3125 -8.421875 C 2.507812 -8.535156 2.742188 -8.59375 3.015625 -8.59375 C 3.179688 -8.59375 3.347656 -8.550781 3.515625 -8.46875 C 3.679688 -8.382812 3.78125 -8.242188 3.8125 -8.046875 C 4.488281 -5.460938 5.488281 -3.617188 6.8125 -2.515625 C 8.132812 -1.410156 9.515625 -0.859375 10.953125 -0.859375 C 12.128906 -0.859375 13.171875 -1.109375 14.078125 -1.609375 C 14.984375 -2.109375 15.691406 -2.816406 16.203125 -3.734375 C 16.722656 -4.660156 16.984375 -5.742188 16.984375 -6.984375 C 16.984375 -8.359375 16.753906 -9.472656 16.296875 -10.328125 C 15.847656 -11.179688 15.207031 -11.925781 14.375 -12.5625 C 13.539062 -13.195312 12.519531 -13.882812 11.3125 -14.625 C 10 -15.46875 8.707031 -16.316406 7.4375 -17.171875 C 6.164062 -18.023438 5.109375 -19.007812 4.265625 -20.125 C 3.429688 -21.25 3.015625 -22.617188 3.015625 -24.234375 C 3.015625 -25.941406 3.398438 -27.476562 4.171875 -28.84375 C 4.941406 -30.21875 6.101562 -31.316406 7.65625 -32.140625 C 9.21875 -32.960938 11.171875 -33.375 13.515625 -33.375 C 14.722656 -33.375 15.769531 -33.25 16.65625 -33 C 17.550781 -32.75 18.265625 -32.503906 18.796875 -32.265625 C 19.066406 -32.171875 19.289062 -32.003906 19.46875 -31.765625 C 19.65625 -31.535156 19.785156 -31.285156 19.859375 -31.015625 C 20.054688 -30.304688 20.269531 -29.5 20.5 -28.59375 C 20.738281 -27.695312 20.859375 -26.84375 20.859375 -26.03125 C 20.859375 -25.664062 20.609375 -25.484375 20.109375 -25.484375 C 19.804688 -25.484375 19.507812 -25.550781 19.21875 -25.6875 C 18.9375 -25.820312 18.765625 -25.988281 18.703125 -26.1875 C 17.992188 -27.96875 17.171875 -29.328125 16.234375 -30.265625 C 15.296875 -31.203125 14.109375 -31.671875 12.671875 -31.671875 C 11.660156 -31.671875 10.71875 -31.484375 9.84375 -31.109375 C 8.976562 -30.742188 8.269531 -30.140625 7.71875 -29.296875 C 7.164062 -28.460938 6.890625 -27.34375 6.890625 -25.9375 C 6.890625 -24.925781 7.210938 -24.007812 7.859375 -23.1875 C 8.515625 -22.375 9.378906 -21.597656 10.453125 -20.859375 C 11.523438 -20.117188 12.679688 -19.363281 13.921875 -18.59375 C 15.097656 -17.894531 16.242188 -17.125 17.359375 -16.28125 C 18.484375 -15.445312 19.40625 -14.453125 20.125 -13.296875 C 20.851562 -12.140625 21.21875 -10.722656 21.21875 -9.046875 C 21.21875 -7.066406 20.765625 -5.332031 19.859375 -3.84375 C 18.953125 -2.351562 17.675781 -1.207031 16.03125 -0.40625 C 14.394531 0.394531 12.46875 0.796875 10.25 0.796875 Z M 10.25 0.796875 "/></g></g></g></svg>